<svg version="1.1" xmlns="http://www.w3.org/2000/svg" viewBox="0 0 523.8964980736639 289.1408731323065" width="523.8964980736639" height="289.1408731323065">
  <!-- svg-source:excalidraw -->
  
  <defs>
    <style class="style-fonts">
      @font-face {
        font-family: "Virgil";
        src: url("https://excalidraw.com/Virgil.woff2");
      }
      @font-face {
        font-family: "Cascadia";
        src: url("https://excalidraw.com/Cascadia.woff2");
      }
    </style>
    
  </defs>
  <rect x="0" y="0" width="523.8964980736639" height="289.1408731323065" fill="#ffffff"/><g stroke-linecap="round" transform="translate(128.38030242919922 49.95291842039248) rotate(0 55.5 15)"><path d="M-0.88 2 C30.83 -1.68, 61.62 -1.44, 110.3 1.29 M-0.31 -0.89 C31.29 0.35, 61.36 0.62, 110.09 0.13 M109.94 -1.05 C109.3 7.22, 111.49 17.8, 109.48 31.62 M110.43 0.98 C111.7 8.18, 112.12 13.61, 110.48 30.78 M109.33 28.43 C77.89 30.66, 46.17 30.75, -0.64 30.4 M110.17 30.41 C80.61 30.71, 48.54 30.15, 0.24 30.36 M-0.53 29.07 C1.34 17.26, -1.46 4.55, -1.1 -1.56 M0.37 30.29 C1.09 21.75, 1.15 14.21, 0.92 -0.84" stroke="#000000" stroke-width="1" fill="none"/></g><g transform="translate(138.07170867919922 55.75291842039249) rotate(0 45.80859375 9.200000000000003)"><text x="45.80859375" y="0" font-family="Helvetica, Segoe UI Emoji" font-size="16px" fill="#000000" text-anchor="middle" style="white-space: pre;" direction="ltr" dominant-baseline="text-before-edge">5.Application</text></g><g stroke-linecap="round" transform="translate(130.48067474365234 98.0487939697089) rotate(0 55.5 15)"><path d="M0.15 -0.44 C38.31 -2.71, 77.96 0.19, 110.89 0.08 M0.4 0.8 C25.97 1.15, 53.74 0.35, 110.62 -0.05 M112.58 1.28 C112.87 7.84, 112.73 15.67, 111.85 30.63 M111.44 -0.24 C111.99 10.5, 110.43 20.03, 110.17 30.03 M109.19 30.55 C68.54 30.03, 26.54 31.67, 1.36 30.41 M111.12 30.34 C88.09 31.04, 66.03 31.32, -0.4 30.21 M0.4 29.75 C1.05 24.98, -1.73 17.76, -1.37 -0.02 M0.78 29.54 C0.3 19.06, -0.18 6.39, 0.34 0.92" stroke="#000000" stroke-width="1" fill="none"/></g><g transform="translate(145.37129974365234 103.8487939697089) rotate(0 40.609375 9.199999999999996)"><text x="40.609375" y="0" font-family="Helvetica, Segoe UI Emoji" font-size="16px" fill="#000000" text-anchor="middle" style="white-space: pre;" direction="ltr" dominant-baseline="text-before-edge">4.Transport</text></g><g stroke-linecap="round" transform="translate(128.93132781982422 144.04595583494327) rotate(0 55.5 15)"><path d="M1.55 -0.29 C41.66 0.32, 85.87 -1.14, 112.9 -1.37 M-0.09 0.35 C38.74 -1.61, 77.09 -0.65, 110.64 -0.95 M110.38 1.11 C109.4 9.71, 112.33 19.23, 111.37 31.51 M111.91 -0.62 C110.52 10.14, 109.9 21.26, 111.22 29.24 M112.12 31.08 C89.04 30.14, 62.22 30.01, 0.62 29.13 M111.81 29.88 C80.69 30.08, 52.36 31.09, 0.19 30.15 M-1.3 30.5 C0.21 25.27, 1.41 18.23, 1.38 -1.44 M0.2 29.63 C1.01 21, 0.78 11.24, 0.23 0.96" stroke="#000000" stroke-width="1" fill="none"/></g><g transform="translate(148.41960906982422 149.84595583494325) rotate(0 36.01171875 9.2)"><text x="36.01171875" y="0" font-family="Helvetica, Segoe UI Emoji" font-size="16px" fill="#000000" text-anchor="middle" style="white-space: pre;" direction="ltr" dominant-baseline="text-before-edge">3.Network</text></g><g stroke-linecap="round" transform="translate(130.43209075927734 194.29404085691593) rotate(0 55.5 17)"><path d="M-1.06 -1.35 C36 0.73, 72.99 -1.56, 111.16 0.21 M0.47 -0.9 C27.32 -0.03, 53.61 -1.68, 110.44 0.42 M112.06 1.99 C111.4 14.04, 111.73 25.59, 110.14 34.87 M110.91 -0.19 C111.48 7.04, 110.66 15.98, 110.19 33.03 M110.42 35.15 C80.09 31.96, 49.12 32.35, 1.85 35.89 M110.19 33.78 C73.12 33.57, 37.13 32.73, -0.55 34.96 M-1.46 32.37 C-1.04 20.67, -0.66 6.5, -0.38 -0.29 M-0.43 33.08 C-0.05 20.62, 0.2 8.01, -0.4 -0.32" stroke="#000000" stroke-width="1" fill="none"/></g><g transform="translate(147.68599700927734 202.09404085691594) rotate(0 38.24609375 9.2)"><text x="38.24609375" y="0" font-family="Helvetica, Segoe UI Emoji" font-size="16px" fill="#000000" text-anchor="middle" style="white-space: pre;" direction="ltr" dominant-baseline="text-before-edge">2.DataLink</text></g><g stroke-linecap="round" transform="translate(128.1327133178711 245.14087313230655) rotate(0 55.5 17)"><path d="M1.83 -0.27 C24.88 -1.73, 52.26 -0.32, 109.9 -0.07 M-0.95 0.17 C40.63 0.35, 82.18 0.01, 111.6 0.45 M109.79 -1.1 C110.75 11.38, 110.06 20.62, 110.74 33.61 M110.55 0.39 C111.09 9.69, 111.48 20.71, 110.22 34.92 M110.63 35.59 C83.85 34.71, 53.05 34.81, -1 34.73 M111.79 33.93 C80.7 34.2, 51.91 34.16, -0.36 34.68 M0.59 35.27 C-0.96 20.32, -2.16 8.04, -0.87 1.59 M-0.17 34.12 C-0.79 23.09, 0.73 12.16, 0.32 0.13" stroke="#000000" stroke-width="1" fill="none"/></g><g transform="translate(147.1717758178711 252.94087313230654) rotate(0 36.4609375 9.199999999999996)"><text x="36.4609375" y="0" font-family="Helvetica, Segoe UI Emoji" font-size="16px" fill="#000000" text-anchor="middle" style="white-space: pre;" direction="ltr" dominant-baseline="text-before-edge">1.Physical</text></g><g stroke-linecap="round" transform="translate(10 44.4310953002753) rotate(0 46.5 24.5)"><path d="M0.14 1.61 C31.54 -1.43, 65.21 0.89, 91.35 -0.5 M0.28 0.66 C25.77 0.39, 49.42 0.06, 93.58 0.68 M93.98 0.74 C91.95 16.53, 94.05 36.25, 94.87 50.37 M93.22 0.81 C93.19 17.14, 94.06 35.11, 92.79 49.14 M91.75 49.24 C58.16 47.1, 23.26 48.88, -1.68 48.66 M93.52 48.06 C63.83 50.51, 35.43 49.35, -0.21 49.01 M-1.51 50.84 C-1.92 32.6, -2.05 11.32, -0.45 -1.72 M0.2 48.75 C-1.08 30.1, -0.76 13.72, -0.31 0.04" stroke="#000000" stroke-width="1" fill="none"/></g><g transform="translate(24.9375 50.5310953002753) rotate(0 31.5625 18.4)"><text x="31.5625" y="0" font-family="Helvetica, Segoe UI Emoji" font-size="16px" fill="#000000" text-anchor="middle" style="white-space: pre;" direction="ltr" dominant-baseline="text-before-edge">Network </text><text x="31.5625" y="18.4" font-family="Helvetica, Segoe UI Emoji" font-size="16px" fill="#000000" text-anchor="middle" style="white-space: pre;" direction="ltr" dominant-baseline="text-before-edge">software</text></g><g stroke-linecap="round" transform="translate(15.209907531738281 104.29422396238468) rotate(0 48.5 35)"><path d="M0.11 0.42 C30.22 0.34, 62.96 -0.34, 96.34 -1.98 M0.21 -0.88 C35.97 -0.42, 72.71 -0.6, 96.55 -0.22 M98.84 -1.88 C97.87 17, 98.18 35.6, 96.68 68.12 M97.06 0.11 C96.68 26.9, 96.62 54.17, 96.22 69.98 M97.82 69.7 C62.37 70.89, 26.86 70.64, 0.7 71.72 M97 69.8 C74.65 70.45, 50.99 70.62, 0.19 70.91 M0.02 69.99 C-1.38 52.14, -0.58 36.16, -1.81 -0.18 M0.59 69.49 C1.48 51.13, 0.36 34.31, 0.11 0.28" stroke="#000000" stroke-width="1" fill="none"/></g><g transform="translate(52.15131378173828 130.09422396238466) rotate(0 11.55859375 9.2)"><text x="11.55859375" y="0" font-family="Helvetica, Segoe UI Emoji" font-size="16px" fill="#000000" text-anchor="middle" style="white-space: pre;" direction="ltr" dominant-baseline="text-before-edge">OS</text></g><g stroke-linecap="round" transform="translate(11.184852600097656 193.26179903562686) rotate(0 53 41)"><path d="M0.3 -0.39 C27.83 -2.05, 52.95 -1.79, 107.07 -1.46 M0.4 -0.44 C39.97 -0.39, 81.92 0.06, 105.88 0.81 M105.65 1.25 C104.71 19.37, 108.53 39.01, 107.49 83.38 M106.64 0.05 C106.5 17.69, 105.29 36.02, 105.59 82.26 M106.58 83.7 C76.27 82.58, 45.85 82.3, -0.58 80.14 M106.68 81.93 C83.34 82.48, 59.59 82.51, 0.06 81.35 M-1.43 81.27 C-1.44 51.56, -1.67 20.51, -0.85 -0.68 M0.82 82.72 C-0.03 55.64, -0.79 28.84, 0.69 0.04" stroke="#000000" stroke-width="1" fill="none"/></g><g transform="translate(18.403602600097656 206.66179903562687) rotate(0 45.78125 27.599999999999994)"><text x="45.78125" y="0" font-family="Helvetica, Segoe UI Emoji" font-size="16px" fill="#000000" text-anchor="middle" style="white-space: pre;" direction="ltr" dominant-baseline="text-before-edge">NIC(Network</text><text x="45.78125" y="18.4" font-family="Helvetica, Segoe UI Emoji" font-size="16px" fill="#000000" text-anchor="middle" style="white-space: pre;" direction="ltr" dominant-baseline="text-before-edge">Interface </text><text x="45.78125" y="36.8" font-family="Helvetica, Segoe UI Emoji" font-size="16px" fill="#000000" text-anchor="middle" style="white-space: pre;" direction="ltr" dominant-baseline="text-before-edge">Card)网卡</text></g><g stroke-linecap="round" transform="translate(363.67041062558326 53.456377488514164) rotate(0 61 15)"><path d="M-0.08 -0.38 C41.19 -0.47, 83.37 -0.81, 120.83 -1.75 M-0.18 0.49 C33.15 0.03, 64.43 -0.35, 121.88 -0.71 M120.41 -1.63 C120.34 5.72, 123.55 13.89, 120.35 29.46 M122.49 0.59 C122.9 8.78, 123.25 20.14, 121.86 29.16 M123.57 29.21 C96.82 29.4, 69.53 27.9, -0.48 31.25 M122.63 29.85 C94.89 28.92, 66.99 28.92, -0.35 29.36 M-1.42 31.66 C-0.12 22.59, 1.11 11.39, -0.29 1.94 M-0.65 30.05 C0.16 21.96, 0.71 14.86, 0.77 -0.23" stroke="#000000" stroke-width="1" fill="none"/></g><g transform="translate(370.13916062558326 59.256377488514175) rotate(0 54.53125 9.200000000000003)"><text x="54.53125" y="0" font-family="Helvetica, Segoe UI Emoji" font-size="16px" fill="#000000" text-anchor="middle" style="white-space: pre;" direction="ltr" dominant-baseline="text-before-edge">Web/HTTP etc.</text></g><g stroke-linecap="round" transform="translate(361.0508785849511 101.2604370488992) rotate(0 64 15)"><path d="M1.37 1.18 C42.21 -1.47, 80.96 -1.03, 127.93 -1.13 M-0.62 -0.93 C27.69 0.94, 56.9 0.72, 128.4 -0.76 M127.71 -0.65 C129.64 8.11, 128.49 16.95, 128.42 29.3 M128.63 0.76 C126.86 9.89, 127.17 20.74, 127.28 29.66 M127.89 31.19 C85.45 29.46, 45.71 30.31, 1.92 29.26 M128.75 29.21 C80.62 30.99, 31.35 30.76, 0.35 30.73 M-1.36 29.78 C1.52 17.97, 1.62 8.89, 1.97 0.01 M-0.6 30.57 C-0.24 20.08, 1 8.16, 0.39 -0.97" stroke="#000000" stroke-width="1" fill="none"/></g><g transform="translate(374.8204098349511 107.0604370488992) rotate(0 50.23046875 9.199999999999996)"><text x="50.23046875" y="0" font-family="Helvetica, Segoe UI Emoji" font-size="16px" fill="#000000" text-anchor="middle" style="white-space: pre;" direction="ltr" dominant-baseline="text-before-edge">TCP/UDP etc.</text></g><g stroke-linecap="round" transform="translate(335.89649807366385 142.70201327445682) rotate(0 89 15)"><path d="M1.94 -0.03 C57.13 -1.47, 111.16 -1.35, 178.91 -0.61 M-0.92 -0.25 C67.05 1.71, 135.99 1.25, 178.43 0.31 M177.66 -0.63 C177.45 10.76, 178.49 20.45, 177.26 29.15 M178.61 -0.91 C178.33 11.63, 178.56 22.02, 178.35 29.56 M177.61 28.9 C125.81 32.23, 74.5 29.35, 0.45 30.47 M178.19 29.81 C128.96 31.27, 81.21 31.15, -0.56 30.81 M-1.56 28.7 C-0.74 16.52, -1.34 6.41, -0.05 1.66 M0.05 30.05 C0.26 20.61, 0.71 12.3, 0.02 -0.4" stroke="#000000" stroke-width="1" fill="none"/></g><g transform="translate(348.56056057366385 148.50201327445683) rotate(0 76.3359375 9.2)"><text x="76.3359375" y="0" font-family="Helvetica, Segoe UI Emoji" font-size="16px" fill="#000000" text-anchor="middle" style="white-space: pre;" direction="ltr" dominant-baseline="text-before-edge">IP,Routing Algorithms</text></g><g stroke-linecap="round" transform="translate(351.686306653139 181.4192224054464) rotate(0 77.5 15)"><path d="M0.4 -0.87 C39.75 -2.35, 79.63 -2.95, 155.27 1.65 M0.8 -0.23 C40.84 -1.97, 80.04 -1.12, 154.6 0.44 M154.91 -0.55 C154.8 7.05, 154.61 12.02, 154.99 30.84 M154.49 0.03 C154.12 12.44, 154.91 22.47, 155.54 29.99 M156.65 30.12 C101.3 32.25, 49.88 31.95, -1.64 28.43 M155.77 30.67 C124.25 29.26, 92.35 29.42, -0.82 30.81 M0.76 31.74 C-0.87 20.36, -0.81 12.52, 0.69 -0.16 M-0.73 30.44 C0.25 21, -1.02 13.46, -0.44 0.76" stroke="#000000" stroke-width="1" fill="none"/></g><g transform="translate(358.506619153139 187.2192224054464) rotate(0 70.6796875 9.2)"><text x="70.6796875" y="0" font-family="Helvetica, Segoe UI Emoji" font-size="16px" fill="#000000" text-anchor="middle" style="white-space: pre;" direction="ltr" dominant-baseline="text-before-edge">CSMA/CD,ARP etc.</text></g><g transform="translate(377.42492829962714 10) rotate(0 42.0205078125 16.099999999999994)"><text x="0" y="0" font-family="Helvetica, Segoe UI Emoji" font-size="28px" fill="#000000" text-anchor="start" style="white-space: pre;" direction="ltr" dominant-baseline="text-before-edge">proctol</text></g></svg>